<?xml version="1.0" encoding="UTF-8" standalone="no"?>
<!-- Created with Inkscape (http://www.inkscape.org/) -->

<svg
   version="1.1"
   id="svg1"
   width="1122.5601"
   height="793.76001"
   viewBox="0 0 1122.5601 793.76001"
   sodipodi:docname="Logga_vit.svg"
   inkscape:export-filename="Logga.svg"
   inkscape:export-xdpi="96"
   inkscape:export-ydpi="96"
   inkscape:version="1.4 (86a8ad7, 2024-10-11)"
   xmlns:inkscape="http://www.inkscape.org/namespaces/inkscape"
   xmlns:sodipodi="http://sodipodi.sourceforge.net/DTD/sodipodi-0.dtd"
   xmlns="http://www.w3.org/2000/svg"
   xmlns:svg="http://www.w3.org/2000/svg">
  <defs
     id="defs1">
    <clipPath
       clipPathUnits="userSpaceOnUse"
       id="clipPath3">
      <path
         d="M 0.64,0.16 V 793.76001 H 1122.5601 V 0.16 Z"
         transform="translate(-354.79999,-548.19001)"
         clip-rule="evenodd"
         id="path3" />
    </clipPath>
    <clipPath
       clipPathUnits="userSpaceOnUse"
       id="clipPath5">
      <path
         d="M 0.64,0.16 V 793.76001 H 1122.5601 V 0.16 Z"
         transform="translate(-768.67999,-548.19001)"
         clip-rule="evenodd"
         id="path5" />
    </clipPath>
    <clipPath
       clipPathUnits="userSpaceOnUse"
       id="clipPath7">
      <path
         d="M 0.64,29.280001 V 765.12 H 1122.5601 V 29.280001 Z"
         transform="translate(-644.59998,-526.09003)"
         clip-rule="evenodd"
         id="path7" />
    </clipPath>
    <clipPath
       clipPathUnits="userSpaceOnUse"
       id="clipPath9">
      <path
         d="M 0.64,29.280001 V 765.12 H 1122.5601 V 29.280001 Z"
         transform="translate(-637.86999,-639.79999)"
         clip-rule="evenodd"
         id="path9" />
    </clipPath>
    <clipPath
       clipPathUnits="userSpaceOnUse"
       id="clipPath11">
      <path
         d="M 0.64,29.280001 V 765.12 H 1122.5601 V 29.280001 Z"
         transform="translate(-565.17999,-579.73999)"
         clip-rule="evenodd"
         id="path11" />
    </clipPath>
    <clipPath
       clipPathUnits="userSpaceOnUse"
       id="clipPath13">
      <path
         d="M 0.64,29.280001 V 765.12 H 1122.5601 V 29.280001 Z"
         clip-rule="evenodd"
         id="path13" />
    </clipPath>
    <clipPath
       clipPathUnits="userSpaceOnUse"
       id="clipPath15">
      <path
         d="M 0.64,29.280001 V 765.12 H 1122.5601 V 29.280001 Z"
         clip-rule="evenodd"
         id="path15" />
    </clipPath>
    <clipPath
       clipPathUnits="userSpaceOnUse"
       id="clipPath17">
      <path
         d="M 0.64,29.280001 V 765.12 H 1122.5601 V 29.280001 Z"
         transform="translate(-719.53003,-394.44001)"
         clip-rule="evenodd"
         id="path17" />
    </clipPath>
    <clipPath
       clipPathUnits="userSpaceOnUse"
       id="clipPath19">
      <path
         d="M 0.64,29.280001 V 765.12 H 1122.5601 V 29.280001 Z"
         transform="translate(-155.95,-249.98)"
         clip-rule="evenodd"
         id="path19" />
    </clipPath>
    <clipPath
       clipPathUnits="userSpaceOnUse"
       id="clipPath21">
      <path
         d="M 0.64,29.280001 V 765.12 H 1122.5601 V 29.280001 Z"
         transform="translate(-250.42,-241.65)"
         clip-rule="evenodd"
         id="path21" />
    </clipPath>
    <clipPath
       clipPathUnits="userSpaceOnUse"
       id="clipPath23">
      <path
         d="M 0.64,29.280001 V 765.12 H 1122.5601 V 29.280001 Z"
         transform="translate(-283.23999,-181.60001)"
         clip-rule="evenodd"
         id="path23" />
    </clipPath>
    <clipPath
       clipPathUnits="userSpaceOnUse"
       id="clipPath25">
      <path
         d="M 0.64,29.280001 V 765.12 H 1122.5601 V 29.280001 Z"
         transform="translate(-327.10999,-162.06)"
         clip-rule="evenodd"
         id="path25" />
    </clipPath>
    <clipPath
       clipPathUnits="userSpaceOnUse"
       id="clipPath27">
      <path
         d="M 0.64,29.280001 V 765.12 H 1122.5601 V 29.280001 Z"
         transform="translate(-388.42999,-179.83001)"
         clip-rule="evenodd"
         id="path27" />
    </clipPath>
    <clipPath
       clipPathUnits="userSpaceOnUse"
       id="clipPath29">
      <path
         d="M 0.64,29.280001 V 765.12 H 1122.5601 V 29.280001 Z"
         transform="translate(-438.54001,-167.18)"
         clip-rule="evenodd"
         id="path29" />
    </clipPath>
    <clipPath
       clipPathUnits="userSpaceOnUse"
       id="clipPath31">
      <path
         d="M 0.64,29.280001 V 765.12 H 1122.5601 V 29.280001 Z"
         transform="translate(-489.60999,-164.94001)"
         clip-rule="evenodd"
         id="path31" />
    </clipPath>
    <clipPath
       clipPathUnits="userSpaceOnUse"
       id="clipPath33">
      <path
         d="M 0.64,29.280001 V 765.12 H 1122.5601 V 29.280001 Z"
         transform="translate(-554.14001,-160.78)"
         clip-rule="evenodd"
         id="path33" />
    </clipPath>
    <clipPath
       clipPathUnits="userSpaceOnUse"
       id="clipPath35">
      <path
         d="M 0.64,29.280001 V 765.12 H 1122.5601 V 29.280001 Z"
         transform="translate(-622.97998,-157.73)"
         clip-rule="evenodd"
         id="path35" />
    </clipPath>
    <clipPath
       clipPathUnits="userSpaceOnUse"
       id="clipPath37">
      <path
         d="M 0.64,29.280001 V 765.12 H 1122.5601 V 29.280001 Z"
         transform="translate(-744.17999,-181.44001)"
         clip-rule="evenodd"
         id="path37" />
    </clipPath>
    <clipPath
       clipPathUnits="userSpaceOnUse"
       id="clipPath39">
      <path
         d="M 0.64,29.280001 V 765.12 H 1122.5601 V 29.280001 Z"
         transform="translate(-786.77002,-197.13001)"
         clip-rule="evenodd"
         id="path39" />
    </clipPath>
    <clipPath
       clipPathUnits="userSpaceOnUse"
       id="clipPath41">
      <path
         d="M 0.64,29.280001 V 765.12 H 1122.5601 V 29.280001 Z"
         transform="translate(-840.57001,-230.28)"
         clip-rule="evenodd"
         id="path41" />
    </clipPath>
    <clipPath
       clipPathUnits="userSpaceOnUse"
       id="clipPath43">
      <path
         d="M 0.64,29.280001 V 765.12 H 1122.5601 V 29.280001 Z"
         transform="translate(-887.79999,-251.26)"
         clip-rule="evenodd"
         id="path43" />
    </clipPath>
    <clipPath
       clipPathUnits="userSpaceOnUse"
       id="clipPath45">
      <path
         d="M 0.64,29.280001 V 765.12 H 1122.5601 V 29.280001 Z"
         transform="translate(-940.31,-281.37)"
         clip-rule="evenodd"
         id="path45" />
    </clipPath>
    <clipPath
       clipPathUnits="userSpaceOnUse"
       id="clipPath47">
      <path
         d="M 0.64,29.280001 V 765.12 H 1122.5601 V 29.280001 Z"
         transform="translate(-989.29999,-311.95999)"
         clip-rule="evenodd"
         id="path47" />
    </clipPath>
  </defs>
  <sodipodi:namedview
     id="namedview1"
     pagecolor="#ffffff"
     bordercolor="#000000"
     borderopacity="0.25"
     inkscape:showpageshadow="2"
     inkscape:pageopacity="0.0"
     inkscape:pagecheckerboard="0"
     inkscape:deskcolor="#d1d1d1"
     inkscape:zoom="1.4702177"
     inkscape:cx="561.48148"
     inkscape:cy="396.88"
     inkscape:window-width="3440"
     inkscape:window-height="1369"
     inkscape:window-x="-8"
     inkscape:window-y="-8"
     inkscape:window-maximized="1"
     inkscape:current-layer="g1">
    <inkscape:page
       x="0"
       y="0"
       inkscape:label="1"
       id="page1"
       width="1122.5601"
       height="793.76001"
       margin="0"
       bleed="0" />
  </sodipodi:namedview>
  <g
     id="g1"
     inkscape:groupmode="layer"
     inkscape:label="1">
    <path
       id="path2"
       d="M 0,0 V 80.559998 L 48.040001,114.83 v 20.81999 H -81.010002 V 114.83 L -32.98,80.559998 V -230.78 H 0 v 197.789998 h 90.779999 l 0,32.990002 z"
       style="fill:#ffffff;fill-opacity:1;fill-rule:nonzero;stroke:none"
       transform="translate(354.79999,548.19001)"
       clip-path="url(#clipPath3)" />
    <path
       id="path4"
       d="M 0,0 V 80.559998 L -47.869999,114.83 v 20.81999 H 81.010002 V 114.83 L 32.98,80.559998 V -230.78 H 0 V -32.990002 H -90.779999 V 0 Z"
       style="fill:#ffffff;fill-opacity:1;fill-rule:nonzero;stroke:none"
       transform="translate(768.67999,548.19001)"
       clip-path="url(#clipPath5)" />
    <path
       id="path6"
       d="M 0,0 C 0,17.459999 -14.09,31.549999 -31.379999,31.549999 -34.91,31.549999 -38.27,30.91 -41.470001,29.790001 L -114.16,102.66 c 1.12,3.2 1.6,6.4 1.6,9.93 0,17.44999 -14.09,31.55 -31.38,31.55 -2.08,0 -4.16001,-0.31999 -6.08,-0.64 l 21.93,-21.94 -24.65,-24.670001 -21.93999,21.940001 c -0.48001,-2.08 -0.64002,-4 -0.64002,-6.24 0,-17.299999 14.09001,-31.390003 31.38001,-31.390003 3.52,0 6.89,0.639999 9.93001,1.600006 L -61.16,10.09 v 0 C -62.290001,6.89 -62.77,3.52 -62.77,0 c 0,-17.299999 14.09,-31.389999 31.390001,-31.389999 2.08,0 4.16,0.319999 6.08,0.639999 L -47.240002,-8.81 -22.58,15.85 -0.64,-6.09 C -0.16,-4.17 0,-2.08 0,0 Z"
       style="fill:#ffffff;fill-opacity:1;fill-rule:nonzero;stroke:none"
       transform="translate(644.59998,526.09003)"
       clip-path="url(#clipPath7)" />
    <path
       id="path8"
       d="M 0,0 C -0.64,0.8 -1.6,1.12 -2.56,1.12 -3.52,1.12 -4.48,0.8 -5.12,0 l -50.269999,-50.130001 c -1.450001,-1.439999 -1.450001,-3.68 0,-5.119999 0.799999,-0.810001 1.759998,-1.130001 2.720001,-1.130001 0.799999,0 1.759998,0.32 2.559997,1.130001 L 0,-5.13 C 1.44,-3.68 1.44,-1.44 0,0 Z m -11.85,11.85 c -0.64,0.8 -1.6,1.12 -2.56,1.12 -0.96,0 -1.92,-0.32 -2.559999,-1.12 l -50.269999,-50.129999 c -1.440002,-1.440002 -1.440002,-3.68 0,-5.120003 0.799996,-0.799999 1.759995,-1.119998 2.720001,-1.119998 0.799996,0 1.759999,0.319999 2.559998,1.119998 L -11.85,6.73 c 1.44,1.44 1.44,3.68 0,5.12 z m 20.5,-21.94 -57.159998,-57.179997 c -1.440003,-1.440002 -3.680001,-1.440002 -5.120003,0 L -79.889999,-41 c -1.440003,1.279999 -1.440003,3.68 0,5.119999 l 57.159999,57.18 c 6.24,6.25 16.33,6.25 22.41,0 L 8.65,12.33 c 6.24,-6.25 6.24,-16.17 0,-22.42 z"
       style="fill:#ffffff;fill-opacity:1;fill-rule:nonzero;stroke:none"
       transform="translate(637.86999,639.79999)"
       clip-path="url(#clipPath9)" />
    <path
       id="path10"
       d="m 0,0 c -1.44,1.44 -3.36,2.24 -5.44,2.24 -1.92,0 -3.84,-0.8 -5.44,-2.24 l -38.270002,-38.279999 c -3.199996,-3.200001 -6.559997,-6.080002 -10.09,-8.800003 L -65.639999,-51.73 c -1.919999,-1.439998 -3.360001,-3.2 -4.32,-5.279998 L -75.57,-69.190002 c -0.639999,-1.119996 -0.319999,-2.559998 0.64,-3.519997 l 2.25,-2.400002 c 0.959999,-0.800003 2.400001,-1.120002 3.519996,-0.639999 l 12.170002,5.599998 c 2.080002,0.96 4,2.57 5.280003,4.330002 l 4.639999,6.400002 c 2.720002,3.689998 5.610001,7.049999 8.810002,10.25 L 0,-10.89 C 3.05,-7.85 3.05,-3.04 0,0 Z"
       style="fill:#ffffff;fill-opacity:1;fill-rule:nonzero;stroke:none"
       transform="translate(565.17999,579.73999)"
       clip-path="url(#clipPath11)" />
    <path
       id="path12"
       d="m 380.42001,380.98999 h 0.47998 c -0.16,0.80002 -0.47998,1.60001 -0.47998,2.24002 z"
       style="fill:#ffffff;fill-opacity:1;fill-rule:nonzero;stroke:none"
       clip-path="url(#clipPath13)" />
    <path
       id="path14"
       d="m 741.29999,380.98999 v 2.24002 c 0,-0.80002 0,-1.44 -0.15998,-2.24002 z"
       style="fill:#ffffff;fill-opacity:1;fill-rule:nonzero;stroke:none"
       clip-path="url(#clipPath15)" />
    <path
       id="path16"
       d="m 0,0 v 8.65 c 0,6.89 -5.45,12.489999 -12.33,12.489999 h -50.280001 c -3.199997,0 -6.239997,-1.439998 -8.319999,-3.519998 C -73.169998,15.38 -74.449997,12.33 -74.449997,9.13 c 0,-5.77 4,-10.73 9.759995,-11.69 L -14.57,-12.17 C -7.05,-13.61 0,-7.69 0,0 Z m -244.49,17.620001 c -2.24,2.08 -5.28,3.519998 -8.48,3.519998 h -50.26999 C -310.13,21.139999 -315.57001,15.54 -315.57001,8.65 V 0 c 0,-7.69 7.04001,-13.61 14.73001,-12.17 l 50.11,9.61 c 5.6,0.96 9.61001,5.92 9.61001,11.69 0,3.2 -1.28,6.25 -3.37001,8.490001 z M -261.14001,-109.7 c 1.28002,-3.69 4.81002,-6.09 8.81001,-6.09 h 187.639998 c 4.010002,0 7.530002,2.4 8.810001,6.09 l 14.41,52.530002 H -275.70999 Z M 28.49,-70.309998 23.690001,-78.470001 c -0.960001,-1.769997 -2.880002,-2.89 -5.120001,-2.89 H -27.379999 L -38.59,-120.27 c -2.880001,-9.45 -11.369999,-15.86 -21.130001,-15.86 H -257.29001 c -9.76999,0 -18.41998,6.41 -21.13998,15.86 l -11.37,38.909999 h -44.35 c -2.08002,0 -4.16001,1.120003 -5.12,2.89 l -4.64001,8.160003 c -4,6.729996 -0.48001,15.219998 6.88,17.46 l 26.9,8.169998 c -14.72999,12.650001 -25.62,23.7 -28.34,31.23 -0.32001,0.8 -0.48001,1.6 -0.48001,2.24 v 120.6 H -275.87 V 76.239998 H -41.150002 V 108.75 H 21.93 V -11.21 c 0,-0.8 -0.16,-1.44 -0.319999,-2.24 C 19.85,-21.780001 8.8,-32.669998 -5.93,-44.52 l 27.380001,-8.329998 C 28.809999,-55.09 32.34,-63.580002 28.49,-70.309998 Z"
       style="fill:#ffffff;fill-opacity:1;fill-rule:nonzero;stroke:none"
       transform="translate(719.53003,394.44001)"
       clip-path="url(#clipPath17)" />
    <path
       id="path18"
       d="M 0,0 25.299999,55.900002 24.02,57.02 -28.02,26.110001 -10.24,54.93 c 7.36,12.019997 14.89,16.339997 22.09,10.25 l 0.64,0.809998 -20.17,18.410004 -0.64,-0.64 C -3.04,78.32 -3.84,70.309998 -12.33,56.220001 L -27.379999,31.549999 C -31.860001,24.190001 -39.220001,21.780001 -45.630001,27.23 L -46.27,26.43 -25.129999,6.89 10.09,27.389999 -6.88,-9.93 l 20.33,-18.74 0.64,0.639999 C 8.33,-22.1 10.41,-14.89 17.290001,-9.61 l 30.419998,23.39 c 7.209999,5.439999 13.610001,5.279999 18.260002,1.44 l 0.64,0.64 -28.5,26.419999 -0.64,-0.64 c 4.32,-4.479999 3.520001,-9.45 -3.36,-14.889999 z"
       style="fill:#ffffff;fill-opacity:1;fill-rule:nonzero;stroke:none"
       transform="translate(155.95,249.98)"
       clip-path="url(#clipPath19)" />
    <path
       id="path20"
       d="m 0,0 c -0.64,-0.96 -1.45,-1.76 -2.09,-2.88 l -8.32,-12.97 c -5.44,7.53 -4,12.97 -1.6,16.65 2.72,4.49 6.4,4.97 9.12,3.21 C -1.61,3.05 -0.64,1.93 0,0 Z m 1.6,1.29 c -1.28,5.76 -4.49,10.89 -8.81,13.61 -4.96,3.2 -11.69,3.040001 -15.53,-2.72 -3.84,-6.25 -2.559999,-13.94 11.37,-29.309999 L -16.02,-24.5 c -3.680001,-5.77 -6.08,-6.889999 -8.32,-5.450001 -3.84,2.41 -0.16,5.610001 0.960001,10.900002 C -22.42,-14.73 -24.02,-11.85 -26.42,-10.25 c -3.039999,1.93 -6.730002,1.29 -8.81,-1.92 -3.2,-4.959999 -0.479999,-12.33 10.25,-19.379999 11.53,-7.200001 20.33,-5.600003 25.46,2.25 L 12.64,-10.25 c 1.44,2.09 3.05,2.73 4.489999,1.77 1.120001,-0.65 1.92,-2.09 2.08,-4.17 L 20.33,-12.49 c 0.32,5.77 -2.24,10.89 -7.21,14.1 -4,2.56 -8,2.72 -11.52,-0.32 z"
       style="fill:#ffffff;fill-opacity:1;fill-rule:nonzero;stroke:none"
       transform="translate(250.42,241.65)"
       clip-path="url(#clipPath21)" />
    <path
       id="path22"
       d="m 0,0 13.45,26.42 c 1.76,3.360001 4.96,4.33 7.519999,3.039999 C 22.889999,28.5 23.690001,26.9 24.01,24.02 l 1.440001,0.16 C 25.129999,31.870001 21.77,38.91 15.85,41.959999 9.76,45.16 3.52,42.919998 0.48,36.830002 L -14.41,7.52 -19.379999,10.09 -19.860001,9.12 C -13.61,3.36 -9.93,-9.29 -11.37,-19.379999 l 1.28,-0.640001 9.29,18.25 9.12,-4.8 0.96,1.92 z"
       style="fill:#ffffff;fill-opacity:1;fill-rule:nonzero;stroke:none"
       transform="translate(283.23999,181.60001)"
       clip-path="url(#clipPath23)" />
    <path
       id="path24"
       d="m 0,0 11.2,27.379999 c 1.6,3.530001 4.65,4.65 7.37,3.530001 1.92,-0.64 2.720001,-2.25 3.36,-5.129999 L 23.370001,26.1 C 22.41,33.790001 18.57,40.52 12.32,43.080002 6.08,45.639999 0,42.919998 -2.57,36.669998 L -14.89,6.24 -20.02,8.32 -20.5,7.36 c 6.73,-5.28 11.37,-17.61 10.73,-27.7 l 1.28,-0.48 7.85,18.89 9.44,-4 0.8,1.92 z"
       style="fill:#ffffff;fill-opacity:1;fill-rule:nonzero;stroke:none"
       transform="translate(327.10999,162.06)"
       clip-path="url(#clipPath25)" />
    <path
       id="path26"
       d="m 0,0 c -1.28,-3.84 -5.93,-4.8 -11.53,-5.6 -7.689999,-1.28 -16.81,-2.56 -19.689999,-11.690001 -2.410002,-7.849998 2.239999,-16.5 14.09,-20.18 C -11.53,-39.23 -6.09,-39.549999 -1.28,-38.59 l 0.64,12.649999 -1.12,0.16 c -4.81,-7.370001 -11.37,-10.729997 -16.66,-9.129999 -3.68,1.119999 -5.76,4 -4.799999,7.209999 1.439998,4 6.569999,4.960001 12.489999,5.92 7.84,1.120001 16.97,2.25 19.85,11.210001 2.56,8.49 -2.72,16.66 -14.89,20.5 -6.24,1.93 -13.609999,2.57 -17.770001,1.93 l -0.32,-14.42 L -22.74,-2.88 C -18.42,5.61 -11.37,9.77 -5.13,7.85 -0.8,6.41 0.96,3.21 0,0 Z"
       style="fill:#ffffff;fill-opacity:1;fill-rule:nonzero;stroke:none"
       transform="translate(388.42999,179.83001)"
       clip-path="url(#clipPath27)" />
    <path
       id="path28"
       d="m 0,0 c -0.96,-3.84 -5.6,-5.28 -10.89,-6.56 -7.68,-2.09 -16.650001,-4.01 -18.730001,-13.300001 -1.759998,-8.17 3.68,-16.329998 15.850001,-19.059997 5.6,-1.120003 11.21,-0.960003 16.01,0.32 l -0.64,12.659997 -1.12,0.16 c -4.16,-7.85 -10.41,-11.85 -15.85,-10.569997 -3.679999,0.799999 -5.920001,3.519996 -5.28,6.719999 0.959999,4.17 6.08,5.449999 11.84,6.889999 7.69,1.92 16.66,4 18.74,13.13 1.92,8.65 -4.17,16.18 -16.65,18.9 -6.41,1.44 -13.61,1.44 -17.78,0.48 L -23.700001,-4.64 -22.41,-4.8 C -18.889999,4.01 -12.17,8.65 -5.76,7.37 -1.44,6.41 0.64,3.36 0,0 Z"
       style="fill:#ffffff;fill-opacity:1;fill-rule:nonzero;stroke:none"
       transform="translate(438.54001,167.18)"
       clip-path="url(#clipPath29)" />
    <path
       id="path30"
       d="M 0,0 C 3.85,-0.48 7.21,-5.45 5.13,-23.059999 3.37,-37.48 -0.48,-45.32 -5.6,-44.68 c -3.84,0.479999 -6.88,5.760002 -4.8,22.899999 C -8.8,-7.53 -4.8,0.64 0,0 Z M -27.209999,-19.219999 C -28.82,-32.509998 -18.889999,-44.84 -5.44,-46.450001 9.13,-48.209999 20.5,-38.599998 21.940001,-25.299999 23.540001,-12.65 14.41,0.16 0.32,1.76 -13.93,3.52 -25.610001,-5.93 -27.209999,-19.219999 Z"
       style="fill:#ffffff;fill-opacity:1;fill-rule:nonzero;stroke:none"
       transform="translate(489.60999,164.94001)"
       clip-path="url(#clipPath31)" />
    <path
       id="path32"
       d="m 0,0 -26.1,0.32 v -0.97 c 2.720001,-0.32 5.44,-2.08 5.28,-7.04 l -0.319999,-24.83 c 0,-5.759999 -3.360001,-7.040001 -6.560002,-6.720002 v -0.959999 l 21.770001,-6.41 0.8,0.16 v 8.010002 C -1.12,-42.93 4.64,-46.93 11.36,-46.93 c 7.21,-0.16 12.49,4 12.49,12.490001 L 24.33,-8.33 c 0,4.96 2.559999,6.72 5.610001,6.88 v 0.97 L 3.68,0 V -0.97 C 6.56,-1.29 8,-2.89 8,-8.17 L 7.68,-32.52 c -0.16,-4.8 -2.24,-7.200001 -5.6,-7.040001 -2.4,0 -4.81,1.280002 -6.89,3.2 L -4.49,-7.85 c 0.16,5.12 1.92,6.72 4.49,6.88 z"
       style="fill:#ffffff;fill-opacity:1;fill-rule:nonzero;stroke:none"
       transform="translate(554.14001,160.78)"
       clip-path="url(#clipPath33)" />
    <path
       id="path34"
       d="m 0,0 c 0.32,-4 -3.68,-6.72 -8.48,-9.61 -6.57,-4.16 -14.569999,-8.65 -13.77,-18.090001 0.799999,-8.329998 8.32,-14.579998 20.81,-13.459999 5.76,0.48 10.89,2.41 15.05,4.970001 L 9.29,-24.18 8.17,-24.34 c -1.6,-8.810002 -6.25,-14.41 -11.85,-14.900002 -3.84,-0.319999 -6.89,1.610001 -7.05,4.810002 -0.48,4.319999 4.01,7.050001 9.13,10.09 6.89,4.16 14.89,8.81 14.09,18.1 C 11.69,2.57 3.68,8.01 -9.12,6.89 -15.69,6.41 -22.57,4.17 -26.26,2.08 l 5.130001,-13.61 1.279999,0.32 c 0.640001,9.45 5.76,16.02 12.17,16.5 C -3.2,5.77 -0.32,3.37 0,0 Z"
       style="fill:#ffffff;fill-opacity:1;fill-rule:nonzero;stroke:none"
       transform="translate(622.97998,157.73)"
       clip-path="url(#clipPath35)" />
    <path
       id="path36"
       d="m 0,0 c -7.2,2.72 -20.01,3.36 -30.9,0.64 -18.890001,-4.97 -33.78,-22.91 -28.019998,-45.009999 5.609997,-22.100002 26.739998,-30.59 48.999998,-24.820003 8.32,2.080001 17.77,6.240001 22.57,10.250003 l -10.25,17.3 -1.76,-0.650002 c 1.76,-13.129997 -4,-22.900001 -13.45,-25.299995 -10.399999,-2.720002 -20.649999,4.959995 -26.570001,27.549995 C -45.630001,-16.02 -40.02,-4.01 -30.1,-1.45 c 6.25,1.61 12.17,-0.32 13.93,-7.36 l 2.72,-10.569999 C -11.37,-27.07 -14.57,-29.790001 -18.73,-31.23 l 0.32,-0.970001 31.06,8.01 -0.16,0.960001 c -3.2,-0.479999 -6.72,0.64 -8.65,8.33 z"
       style="fill:#ffffff;fill-opacity:1;fill-rule:nonzero;stroke:none"
       transform="translate(744.17999,181.44001)"
       clip-path="url(#clipPath37)" />
    <path
       id="path38"
       d="m 0,0 c 0.16,-1.12 0.64,-2.24 1.12,-3.36 l 5.6,-14.260001 c -9.28,-0.16 -12.8,4.170001 -14.57,8.170001 -1.92,4.81 -0.16,8.01 2.89,9.29 C -3.52,0.48 -1.92,0.48 0,0 Z m -0.32,1.92 c -5.44,2.4 -11.37,2.73 -16.01,0.8 -5.6,-2.24 -9.450001,-7.84 -6.729999,-14.25 C -20.33,-18.42 -13.29,-21.780001 7.36,-19.219999 L 10.73,-27.23 c 2.56,-6.400001 2.08,-8.959999 -0.48,-10.09 -4.17,-1.599998 -4.65,3.209999 -8.33,7.209999 -2.88,3.200001 -6.24,3.520001 -8.96,2.560002 -3.21,-1.440001 -4.97,-4.799999 -3.53,-8.32 2.24,-5.450001 9.77,-7.530003 21.78,-2.729999 12.650001,5.129997 16.330001,13.299999 12.81,22.099998 L 15.69,4.32 C 14.73,6.57 15.05,8.33 16.809999,9.13 17.93,9.61 19.530001,9.45 21.290001,8.33 L 21.93,9.29 C 17.290001,12.81 11.53,13.77 6.08,11.53 1.76,9.77 -0.64,6.57 -0.32,1.92 Z"
       style="fill:#ffffff;fill-opacity:1;fill-rule:nonzero;stroke:none"
       transform="translate(786.77002,197.13001)"
       clip-path="url(#clipPath39)" />
    <path
       id="path40"
       d="m 0,0 -24.5,-12.97 0.48,-0.8 c 2.720001,0.96 5.92,0.96 8.33,-3.520001 l 11.68,-21.950001 c 2.72,-4.959999 0.48,-7.84 -2.4,-9.119999 l 0.48,-0.799999 22.1,4.799999 0.48,0.64 -5.13,9.77 c 6.73,-6.09 13.930001,-6.729999 18.260001,-4.479999 3.999998,2.240001 4.800001,6.240001 2.879999,9.6 -1.92,3.85 -5.93,5.129999 -9.610001,3.209999 -4.16,-2.24 -3.199999,-6.409998 -6.24,-8.01 C 14.73,-34.75 12.48,-33.310001 9.76,-30.27 L -1.29,-9.61 c -2.4,4.49 -0.64,7.21 1.77,8.81 z"
       style="fill:#ffffff;fill-opacity:1;fill-rule:nonzero;stroke:none"
       transform="translate(840.57001,230.28)"
       clip-path="url(#clipPath41)" />
    <path
       id="path42"
       d="m 0,0 c 0.32,-0.96 0.96,-1.92 1.6,-3.04 l 8.64,-12.65 c -8.96,-2.08 -13.45,1.28 -15.85,4.96 -3.04,4.33 -2.08,7.69 0.64,9.61 C -3.53,-0.16 -2.08,0.16 0,0 Z m -0.8,1.92 c -5.77,1.13 -11.69,0.17 -15.85,-2.72 -4.970001,-3.36 -7.53,-9.61 -3.53,-15.37 4.01,-6.09 11.69,-7.85 31.38,-0.959999 L 16.17,-24.34 c 3.84,-5.610001 4,-8.329998 1.6,-9.770001 -3.68,-2.559997 -5.12,2.080002 -9.61,5.130001 -3.52,2.56 -6.88,2.24 -9.28,0.64 -2.89,-2.09 -3.85,-5.770001 -1.6,-8.970001 3.2,-4.809998 11.2,-5.129998 21.769999,2.080001 11.210001,7.689999 13.130001,16.49 7.84,24.34 L 14.25,7.69 c -1.44,1.92 -1.44,3.84 0.16,4.81 0.96,0.8 2.559999,0.96 4.479999,0.16 l 0.480002,1.12 C 14.09,16.34 8.32,16.02 3.52,12.66 -0.48,10.09 -2.08,6.41 -0.8,1.92 Z"
       style="fill:#ffffff;fill-opacity:1;fill-rule:nonzero;stroke:none"
       transform="translate(887.79999,251.26)"
       clip-path="url(#clipPath43)" />
    <path
       id="path44"
       d="m 0,0 c 2.4,2.24 8.17,1.12 14.89,-6.56 6.730001,-7.69 7.050001,-13.300001 4.640001,-15.54 C 16.809999,-24.34 11.37,-23.219999 4.64,-15.69 -2.24,-7.85 -2.56,-2.24 0,0 Z m -8.64,30.110001 c 2.08,-2.400002 2.56,-5.440001 -0.48,-8.33 L -18.889999,12.33 C -20.809999,10.57 -22.25,8.65 -23.530001,6.73 -26.1,6.73 -28.34,7.69 -30.1,9.93 c -4.640002,5.13 -3.199999,11.369999 3.36,17.14 7.530001,6.720001 14.73,6.889999 18.1,3.040001 z M -29.139999,27.389999 C -40.349998,17.620001 -43.549999,8.49 -39.220001,3.53 -36.18,0 -30.74,0.16 -25.299999,2.56 -26.1,-0.8 -25.620001,-4 -23.049999,-6.88 -20.01,-10.41 -15.05,-11.37 -9.44,-9.77 c -2.09,-5.76 -1.61,-11.529999 2.08,-15.689999 6.24,-7.049999 19.05,-5.93 27.86,1.759998 2.4,2.08 4.48,4.800001 6.24,7.850001 l 11.69,10.41 -1.439998,1.6 -3.850003,-3.36 c -1.76,-1.61 -3.199998,-2.73 -4.479999,-4.01 1.76,5.29 1.44,10.73 -2.08,14.9 -6.73,7.52 -19.85,4.8 -28.34,-2.57 -2.88,-2.56 -5.12,-5.44 -6.56,-8.48 -2.25,-0.49 -3.69,0 -4.49,1.12 -1.28,1.6 -0.96,3.2 3.21,7.2 L 0.96,11.21 c 7.85,7.849999 9.61,16.02 4.33,22.100001 -6.09,6.73 -20.18,6.73 -34.429999,-5.920002 z"
       style="fill:#ffffff;fill-opacity:1;fill-rule:nonzero;stroke:none"
       transform="translate(940.31,281.37)"
       clip-path="url(#clipPath45)" />
    <path
       id="path46"
       d="M 0,0 8.81,10.09 C 18.1,2.24 20.18,-2.56 17.780001,-5.12 15.21,-8.17 7.85,-6.88 0,0 Z m -18.09,24.99 c -8.16,-9.45 -7.360001,-23.55 2.88,-32.52 10.73,-9.279999 26.1,-8.16 34.429999,1.29 C 26.74,2.4 26.1,13.78 16.98,22.58 L -1.6,1.28 c -8.32,8.17 -9.28,16.660001 -4,22.580001 3.36,3.849998 8.33,5.609998 13.77,4.489999 l 0.48,0.959999 C -1.12,34.27 -11.2,32.669998 -18.09,24.99 Z"
       style="fill:#ffffff;fill-opacity:1;fill-rule:nonzero;stroke:none"
       transform="translate(989.29999,311.95999)"
       clip-path="url(#clipPath47)" />
  </g>
</svg>
